<svg width="14" height="15" viewBox="0 0 14 15" fill="none" xmlns="http://www.w3.org/2000/svg">
<path d="M13.2887 12.4617C13.4649 12.6379 13.5638 12.8767 13.5638 13.1258C13.5638 13.3749 13.4649 13.6137 13.2887 13.7899C13.1126 13.966 12.8737 14.0649 12.6247 14.0649C12.3756 14.0649 12.1367 13.966 11.9606 13.7899L7.00045 8.82814L2.03874 13.7883C1.86261 13.9644 1.62374 14.0634 1.37467 14.0634C1.1256 14.0634 0.886731 13.9644 0.710611 13.7883C0.53449 13.6122 0.435547 13.3733 0.435547 13.1242C0.435547 12.8752 0.53449 12.6363 0.710611 12.4602L5.67233 7.50001L0.712173 2.5383C0.536053 2.36218 0.437109 2.12331 0.437109 1.87423C0.437109 1.62516 0.536053 1.38629 0.712173 1.21017C0.888293 1.03405 1.12716 0.935107 1.37624 0.935107C1.62531 0.935107 1.86418 1.03405 2.0403 1.21017L7.00045 6.17189L11.9622 1.20939C12.1383 1.03327 12.3772 0.934326 12.6262 0.934326C12.8753 0.934326 13.1142 1.03327 13.2903 1.20939C13.4664 1.38551 13.5654 1.62438 13.5654 1.87345C13.5654 2.12252 13.4664 2.36139 13.2903 2.53751L8.32858 7.50001L13.2887 12.4617Z" fill="#222227"/>
</svg>
