<svg width="20" height="21" viewBox="0 0 20 21" fill="none" xmlns="http://www.w3.org/2000/svg">
<path fill-rule="evenodd" clip-rule="evenodd" d="M10.0002 5.77051C8.38933 5.77051 7.0835 7.07634 7.0835 8.68717C7.0835 10.298 8.38933 11.6038 10.0002 11.6038C11.611 11.6038 12.9168 10.298 12.9168 8.68717C12.9168 7.07634 11.611 5.77051 10.0002 5.77051ZM8.75016 8.68717C8.75016 7.99682 9.30981 7.43717 10.0002 7.43717C10.6905 7.43717 11.2502 7.99682 11.2502 8.68717C11.2502 9.37753 10.6905 9.93717 10.0002 9.93717C9.30981 9.93717 8.75016 9.37753 8.75016 8.68717Z" fill="white"/>
<path fill-rule="evenodd" clip-rule="evenodd" d="M10.0002 2.02051C6.31826 2.02051 3.3335 5.00528 3.3335 8.68717C3.3335 9.91395 3.75938 11.144 4.33849 12.2609C4.92136 13.385 5.68883 14.4504 6.44022 15.3628C7.19364 16.2776 7.94475 17.0553 8.50659 17.6038C8.78803 17.8785 9.02326 18.097 9.18926 18.2478C9.2723 18.3232 9.33809 18.3817 9.38379 18.422C9.40664 18.4421 9.42448 18.4577 9.43694 18.4685C9.44083 18.4719 9.4442 18.4748 9.44703 18.4772L9.45155 18.4811L9.45752 18.4863C9.45769 18.4864 9.45784 18.4866 10.0002 17.8538L9.45784 18.4866L10.0002 18.9514L10.5425 18.4866L10.0002 17.8538C10.5425 18.4866 10.5426 18.4864 10.5428 18.4863L10.5488 18.4811L10.5541 18.4765C10.5568 18.4742 10.5599 18.4715 10.5634 18.4685C10.5758 18.4577 10.5937 18.4421 10.6165 18.422C10.6622 18.3817 10.728 18.3232 10.8111 18.2478C10.9771 18.097 11.2123 17.8785 11.4937 17.6038C12.0556 17.0553 12.8067 16.2776 13.5601 15.3628C14.3115 14.4504 15.079 13.385 15.6618 12.2609C16.2409 11.144 16.6668 9.91395 16.6668 8.68717C16.6668 5.00528 13.6821 2.02051 10.0002 2.02051ZM10.3295 16.4112C10.2099 16.5279 10.0994 16.6336 10.0002 16.7272C9.90088 16.6336 9.79041 16.5279 9.67082 16.4112C9.13891 15.8919 8.43168 15.1592 7.72677 14.3033C7.01983 13.4448 6.32897 12.479 5.81808 11.4937C5.30345 10.5012 5.00016 9.54373 5.00016 8.68717C5.00016 5.92575 7.23874 3.68717 10.0002 3.68717C12.7616 3.68717 15.0002 5.92575 15.0002 8.68717C15.0002 9.54373 14.6969 10.5012 14.1822 11.4937C13.6714 12.479 12.9805 13.4448 12.2736 14.3033C11.5686 15.1592 10.8614 15.8919 10.3295 16.4112Z" fill="white"/>
</svg>
