<svg width="152" height="25" viewBox="0 0 152 25" fill="none" xmlns="http://www.w3.org/2000/svg">
<path d="M11.2887 15.7974L22.5632 0.353516V23.8829H17.9334V14.3571L11.2887 23.5122L4.62981 14.3571V23.8829H0V0.353516L11.2887 15.7974Z" fill="#F8F9FC"/>
<path d="M38.3154 0.710022C41.5258 0.710022 44.2789 1.85559 46.5747 4.14674C48.8706 6.43789 50.0185 9.19012 50.0185 12.4034C50.0185 15.6262 48.8706 18.3737 46.5747 20.6459C44.2884 22.9085 41.5353 24.0398 38.3154 24.0398C35.0859 24.0303 32.3328 22.899 30.056 20.6459C27.7697 18.3642 26.6265 15.6167 26.6265 12.4034C26.6265 9.19962 27.7697 6.4474 30.056 4.14674C32.3519 1.85559 35.105 0.710022 38.3154 0.710022ZM38.3154 5.37312C36.3625 5.37312 34.7096 6.05761 33.3569 7.4266C31.9851 8.8146 31.2992 10.464 31.2992 12.3749C31.2992 14.3048 31.9851 15.9542 33.3569 17.3232C34.7192 18.6827 36.372 19.3624 38.3154 19.3624C40.2302 19.3624 41.8782 18.6827 43.2595 17.3232C44.6409 15.9637 45.3315 14.3143 45.3315 12.3749C45.3315 10.4545 44.6409 8.80509 43.2595 7.4266C41.8878 6.05761 40.2397 5.37312 38.3154 5.37312Z" fill="#F8F9FC"/>
<path d="M67.9284 13.6013V0.838364H72.5725V24.3535L58.6831 11.1485V23.9114H54.0533V0.410557L67.9284 13.6013Z" fill="#F8F9FC"/>
<path d="M92.5973 0.895405V5.47295H86.9386V23.8829H82.2945V5.47295H76.6216V0.895405H92.5973Z" fill="#F8F9FC"/>
<path d="M110.536 0.838364V5.44442H101.276V10.079H108.221V14.6851H101.276V19.3196H110.536V23.9114H96.6464V0.838364H110.536Z" fill="#F8F9FC"/>
<path d="M129.932 0.895405L121.072 19.2911H129.932V23.8829H113.728L122.587 5.47295H113.728V0.895405H129.932Z" fill="#F8F9FC"/>
<path d="M138.354 0.895405L142.555 8.86688L146.756 0.895405H152L144.855 14.0291V23.8829H140.254V14.0291L133.124 0.895405H138.354Z" fill="#F8F9FC"/>
</svg>
