<svg width="176" height="36" viewBox="0 0 176 36" fill="none" xmlns="http://www.w3.org/2000/svg">
<path d="M66.7297 13.1475C69.8154 13.1475 72.4616 14.2489 74.6683 16.4517C76.875 18.6545 77.9784 21.3005 77.9784 24.3899C77.9784 27.4884 76.875 30.1299 74.6683 32.3144C72.4708 34.4898 69.8245 35.5774 66.7297 35.5774C63.6256 35.5683 60.9794 34.4806 58.791 32.3144C56.5935 30.1208 55.4947 27.4793 55.4947 24.3899C55.4947 21.3097 56.5935 18.6636 58.791 16.4517C60.9977 14.2489 63.6439 13.1475 66.7297 13.1475ZM66.7297 17.6308C64.8526 17.6308 63.264 18.2889 61.9637 19.605C60.6452 20.9395 59.9859 22.5253 59.9859 24.3625C59.9859 26.2179 60.6452 27.8037 61.9637 29.1199C63.2731 30.427 64.8617 31.0805 66.7297 31.0805C68.5701 31.0805 70.1542 30.427 71.4819 29.1199C72.8095 27.8129 73.4734 26.2271 73.4734 24.3625C73.4734 22.5162 72.8095 20.9304 71.4819 19.605C70.1633 18.2889 68.5793 17.6308 66.7297 17.6308Z" fill="#F8F9FC"/>
<path d="M95.1929 25.5416V13.2709H99.6566V35.8791L86.3065 23.1834V35.454H81.8565V12.8596L95.1929 25.5416Z" fill="#F8F9FC"/>
<path d="M118.904 13.3258V17.7267H113.465V35.4266H109.001V17.7267H103.548V13.3258H118.904Z" fill="#F8F9FC"/>
<path d="M136.146 13.2709V17.6993H127.246V22.1551H133.921V26.5835H127.246V31.0394H136.146V35.454H122.796V13.2709H136.146Z" fill="#F8F9FC"/>
<path d="M154.789 13.3258L146.273 31.0119H154.789V35.4266H139.214L147.729 17.7267H139.214V13.3258H154.789Z" fill="#F8F9FC"/>
<path d="M162.883 13.3258L166.921 20.9898L170.959 13.3258H176L169.133 25.9529V35.4266H164.71V25.9529L157.856 13.3258H162.883Z" fill="#F8F9FC"/>
<path d="M23.4973 18.5334L15.463 7.75181L0 35.6078H6.99807L15.1775 20.768L23.103 32.5801L35.7406 13.3898L48.4889 35.6078H55.8644L35.7266 0.353516L23.4973 18.5334Z" fill="#F8F9FC"/>
</svg>
