<svg width="198" height="40" viewBox="0 0 198 40" fill="none" xmlns="http://www.w3.org/2000/svg">
<path d="M75.0709 14.4054C78.5423 14.4054 81.5193 15.6455 84.0018 18.1257C86.4844 20.606 87.7257 23.5853 87.7257 27.0638C87.7257 30.5525 86.4844 33.5267 84.0018 35.9864C81.5296 38.4357 78.5526 39.6604 75.0709 39.6604C71.5788 39.6501 68.6018 38.4254 66.1399 35.9864C63.6677 33.5164 62.4315 30.5423 62.4315 27.0638C62.4315 23.5956 63.6677 20.6162 66.1399 18.1257C68.6224 15.6455 71.5994 14.4054 75.0709 14.4054ZM75.0709 19.4533C72.9592 19.4533 71.172 20.1943 69.7092 21.6763C68.2259 23.1788 67.4842 24.9643 67.4842 27.0329C67.4842 29.122 68.2259 30.9076 69.7092 32.3895C71.1823 33.8612 72.9695 34.597 75.0709 34.597C77.1414 34.597 78.9235 33.8612 80.4171 32.3895C81.9107 30.9179 82.6576 29.1323 82.6576 27.0329C82.6576 24.9541 81.9107 23.1685 80.4171 21.6763C78.9338 20.1943 77.1517 19.4533 75.0709 19.4533Z" fill="#1B263B"/>
<path d="M107.092 28.3605V14.5444H112.114V40L97.0948 25.7053V39.5215H92.0885V14.0812L107.092 28.3605Z" fill="#1B263B"/>
<path d="M133.767 14.6061V19.5614H127.648V39.4906H122.626V19.5614H116.492V14.6061H133.767Z" fill="#1B263B"/>
<path d="M153.164 14.5444V19.5305H143.151V24.5475H150.661V29.5337H143.151V34.5507H153.164V39.5215H138.145V14.5444H153.164Z" fill="#1B263B"/>
<path d="M174.137 14.6061L164.557 34.5199H174.137V39.4906H156.615L166.195 19.5614H156.615V14.6061H174.137Z" fill="#1B263B"/>
<path d="M183.244 14.6061L187.787 23.2354L192.329 14.6061H198L190.274 28.8236V39.4906H185.299V28.8236L177.589 14.6061H183.244Z" fill="#1B263B"/>
<path d="M26.4345 20.4697L17.3959 8.33011L0 39.6945H7.87283L17.0747 22.9857L25.9909 36.2855L40.2082 14.6783L54.55 39.6945H62.8475L40.1924 0L26.4345 20.4697Z" fill="#00B8D9"/>
</svg>
