<svg width="20" height="21" viewBox="0 0 20 21" fill="none" xmlns="http://www.w3.org/2000/svg">
<path fill-rule="evenodd" clip-rule="evenodd" d="M4.5587 9.4689C6.45369 11.785 8.57498 13.9063 10.8911 15.8013L11.4908 16.292C12.4849 17.1053 13.9335 17.0331 14.8417 16.1249L16.2442 14.7224L13.5925 12.0708L11.3828 14.2805L6.07017 8.96784L8.28725 6.76549L5.63756 4.11581L4.23511 5.51827C3.32691 6.42646 3.25466 7.87508 4.06798 8.86913L4.5587 9.4689ZM9.83568 17.0912C7.4338 15.126 5.23394 12.9262 3.26877 10.5243L2.77805 9.92453C1.42252 8.26777 1.54294 5.85341 3.05659 4.33976L5.63756 1.75879L10.6482 6.76943L8.43113 8.97177L11.3828 11.9234L13.5925 9.71374L18.6012 14.7224L16.0202 17.3034C14.5066 18.817 12.0922 18.9375 10.4355 17.5819L9.83568 17.0912Z" fill="white"/>
</svg>
