<svg width="64" height="22" viewBox="0 0 64 22" fill="none" xmlns="http://www.w3.org/2000/svg">
<path d="M7.7988 1.06862C7.79559 1.05354 7.80087 1.04201 7.81054 1.03447C7.81546 1.03062 7.82043 1.02888 7.8244 1.02844C7.82766 1.02809 7.83251 1.02828 7.83973 1.03213C8.71214 1.49741 9.42011 2.05026 9.97118 2.66079C10.8161 3.59686 11.5237 4.7222 11.6911 5.94361C11.8003 6.7405 11.7463 7.65755 11.6061 8.57647C11.1215 11.7548 8.63086 14.5206 5.46341 14.9554C5.27163 14.9817 4.90998 14.9762 4.50358 14.9082C4.09799 14.8404 3.664 14.7129 3.32151 14.5058C3.3192 14.5045 3.31803 14.5034 3.31751 14.5029C3.31738 14.5022 3.3172 14.5006 3.31767 14.4977C3.31935 14.4876 3.32807 14.4724 3.34722 14.4642C3.89079 14.2326 4.1842 13.8887 4.31876 13.4809C4.44994 13.0834 4.4246 12.6407 4.36876 12.2191C4.33185 11.9405 4.25421 11.6706 4.17964 11.4128L4.17711 11.4041C4.10241 11.1459 4.03117 10.8996 3.99541 10.649C3.93565 10.2303 3.9902 9.75003 4.22702 9.23625C4.48665 8.67297 5.02087 8.29534 5.57691 7.9111C6.97894 6.94225 7.68706 5.90821 7.96385 4.76506C8.23873 3.62982 8.08304 2.40569 7.7988 1.06862Z" fill="#FF831A"/>
<path d="M3.31715 14.5024C3.31715 14.5024 3.31725 14.5025 3.31737 14.5027C3.3172 14.5025 3.31715 14.5024 3.31715 14.5024Z" fill="#FF831A"/>
<path d="M12.042 6.61974C12.0781 6.34843 12.1141 6.0556 12.153 5.73681C12.1652 5.63698 12.295 5.6059 12.3508 5.68953C14.6014 9.05905 14.282 13.5683 11.635 16.6362C8.53644 20.3203 2.61791 19.3069 0.92155 14.8018L0.816263 14.5222C0.786505 14.4432 0.878515 14.3717 0.950953 14.4151C1.9098 14.9896 2.76897 15.1198 3.59043 14.9663C3.87355 15.0786 4.17454 15.1536 4.45468 15.2004C4.87985 15.2716 5.27316 15.2806 5.50369 15.2489C8.8185 14.7939 11.3974 11.9111 11.899 8.62113C12.002 7.94584 12.0608 7.26264 12.042 6.61974Z" fill="#FF831A"/>
<path d="M7.15923 5.92601C7.00161 5.33777 6.71375 4.75745 6.2585 4.20501C6.20659 4.14202 6.105 4.1574 6.06997 4.23112C5.57251 5.27796 4.34429 6.03464 3.12555 6.78549C1.29401 7.91386 -0.516149 9.02906 0.207366 11.0961C0.228183 11.1556 0.29721 11.1859 0.354344 11.1593L0.71763 10.9903L1.16899 10.8092C2.27188 10.3666 3.45835 10.8594 3.98387 11.8132C3.95656 11.7084 3.92617 11.6028 3.89503 11.4951L3.88997 11.4777C3.81707 11.2257 3.74082 10.9622 3.7021 10.6909C3.634 10.2136 3.69811 9.67595 3.95795 9.11222C4.25725 8.46289 4.86582 8.04235 5.40827 7.6675L5.40847 7.66736C6.22292 7.10455 6.78484 6.52705 7.15923 5.92601Z" fill="#FF831A"/>
<path d="M62.5129 16.3274C62.4501 16.3274 62.3992 16.2765 62.3992 16.2137V7.04044C62.3992 6.97766 62.4501 6.92676 62.5129 6.92676H63.7744C63.8372 6.92676 63.8881 6.97766 63.8881 7.04044V16.2137C63.8881 16.2765 63.8372 16.3274 63.7744 16.3274H62.5129Z" fill="white"/>
<path d="M52.0299 16.3356C51.9839 16.3356 51.9424 16.3079 51.9248 16.2653L49.5086 10.1436C49.4777 10.0687 49.5327 9.98648 49.6137 9.98648H50.9537C51.0003 9.98648 51.0423 10.015 51.0594 10.0584L51.9538 12.595C52.2107 13.2555 52.4432 13.8916 52.6756 14.5275C52.6781 14.5345 52.6847 14.5391 52.6922 14.5391C52.6995 14.5391 52.7061 14.5346 52.7087 14.5277C52.9534 13.8792 53.1982 13.2187 53.4673 12.5581L54.3615 10.0578C54.3788 10.0147 54.4206 9.98648 54.467 9.98648H55.7216C55.8025 9.98648 55.8575 10.0686 55.8268 10.1434L53.4224 16.2651C53.4049 16.3078 53.3634 16.3356 53.3173 16.3356H52.0299Z" fill="white"/>
<path d="M46.1864 16.3356C44.3038 16.3356 42.9011 14.9452 42.9011 13.161C42.9011 11.3646 44.3038 9.98648 46.1864 9.98648C48.069 9.98648 49.4717 11.3646 49.4717 13.161C49.4717 14.9452 48.069 16.3356 46.1864 16.3356ZM46.1864 15.019C47.2077 15.019 47.9829 14.2069 47.9829 13.161C47.9829 12.1152 47.2077 11.2908 46.1864 11.2908C45.1528 11.2908 44.39 12.1152 44.39 13.161C44.39 14.2069 45.1528 15.019 46.1864 15.019Z" fill="white"/>
<path fill-rule="evenodd" clip-rule="evenodd" d="M36.3983 18.921C36.3355 18.921 36.2846 18.8701 36.2846 18.8073V10.1139C36.2846 10.0511 36.3355 10.0002 36.3983 10.0002H39.4346C41.0095 10.0002 42.3138 11.2306 42.3138 13.1009C42.3138 14.9958 40.9603 16.3493 39.1639 16.3493C38.6399 16.3493 38.1883 16.2286 37.8091 16.0351C37.8022 16.0315 37.7939 16.0315 37.787 16.0349C37.7787 16.0391 37.7735 16.0475 37.7735 16.0568V18.8073C37.7735 18.8701 37.7226 18.921 37.6598 18.921H36.3983ZM39.0039 15.0943C38.5624 15.0943 38.1428 14.9626 37.828 14.7821C37.7938 14.7625 37.7735 14.7257 37.7735 14.6862V11.3935C37.7735 11.3308 37.8244 11.2799 37.8872 11.2799C38.2726 11.2799 38.5953 11.2799 39.0777 11.2799C40.1605 11.2799 40.8127 12.1166 40.8127 13.1748C40.8127 14.2699 40.1482 15.0943 39.0039 15.0943Z" fill="white"/>
<path d="M23.2268 16.3274C23.164 16.3274 23.1131 16.2765 23.1131 16.2137V7.04044C23.1131 6.97766 23.164 6.92676 23.2268 6.92676H24.4883C24.551 6.92676 24.6019 6.97766 24.6019 7.04044V10.8263C24.6019 10.8344 24.6065 10.8419 24.6138 10.8455C24.6215 10.8494 24.6308 10.8483 24.6374 10.8427C25.1288 10.4289 25.8136 10.1136 26.6076 10.1136C27.272 10.1136 27.8011 10.3228 28.1949 10.7412C28.5763 11.1595 28.724 11.7009 28.724 12.513V16.2137C28.724 16.2765 28.6731 16.3274 28.6103 16.3274H27.3488C27.286 16.3274 27.2351 16.2765 27.2351 16.2137V12.6976C27.2351 12.2669 27.1736 11.947 26.9644 11.7378C26.7552 11.5286 26.4599 11.4302 26.1277 11.4302C25.5781 11.4302 25.0169 11.697 24.6356 12.0617C24.6138 12.0826 24.6019 12.1116 24.6019 12.1417V16.2137C24.6019 16.2765 24.551 16.3274 24.4883 16.3274H23.2268Z" fill="white"/>
<path d="M19.5299 16.3493C18.7767 16.3493 17.8493 16.1983 17.1765 15.8398C17.1403 15.8205 17.1183 15.7825 17.1183 15.7415V14.6384C17.1183 14.5484 17.2184 14.4934 17.2968 14.5377C18.0298 14.9527 18.9182 15.1312 19.5546 15.1312C20.2313 15.1312 20.662 14.9343 20.662 14.5036C20.662 14.196 20.4774 14.0361 19.9606 13.913C19.4438 13.79 18.4964 13.6546 17.9181 13.3839C17.3274 13.1132 17.0444 12.6457 17.0444 11.9443C17.0444 10.6646 18.0903 10.0002 19.5546 10.0002C20.2796 10.0002 21.1311 10.161 21.7316 10.4492C21.7701 10.4677 21.794 10.507 21.794 10.5497V11.5949C21.794 11.6807 21.7023 11.7359 21.6249 11.6988C20.9271 11.3638 20.148 11.206 19.5792 11.206C18.9516 11.206 18.5333 11.3906 18.5333 11.809C18.5333 12.1289 18.7671 12.2765 19.2962 12.3996C19.8253 12.5103 20.7112 12.6334 21.2772 12.8917C21.8555 13.1624 22.1508 13.6177 22.1508 14.3683C22.1508 15.7218 20.9696 16.3493 19.5299 16.3493Z" fill="white"/>
<path fill-rule="evenodd" clip-rule="evenodd" d="M34.6795 16.337L31.7414 16.337C30.5356 16.337 29.625 15.6849 29.625 14.5159C29.625 13.224 30.6217 12.6334 32.1351 12.6334C32.5043 12.6334 32.9349 12.6703 33.3287 12.7318V12.3627C33.3287 11.6121 32.8242 11.2799 31.8644 11.2799C31.2461 11.2799 30.7017 11.4369 30.3032 11.6309C30.2246 11.6692 30.1295 11.6136 30.1295 11.5262V10.5331C30.1295 10.4926 30.1508 10.4551 30.1863 10.4357C30.6322 10.1923 31.3225 10.0002 32.1598 10.0002C33.8086 10.0002 34.7929 10.7262 34.7929 12.1781V12.9785L35.4251 13.085C35.4798 13.0942 35.5199 13.1416 35.5199 13.1971V13.9489C35.5199 14.0194 35.4563 14.0729 35.3868 14.0609L34.7929 13.9579V14.5529V16.2233C34.7929 16.2861 34.7423 16.337 34.6795 16.337ZM33.2151 15.1927H32.0982C31.5322 15.1927 31.0893 14.9589 31.0893 14.4175C31.0893 13.8146 31.6676 13.6177 32.3566 13.6177C32.6519 13.6177 33.0457 13.6546 33.3287 13.7038V15.079C33.3287 15.1418 33.2779 15.1927 33.2151 15.1927Z" fill="white"/>
<path fill-rule="evenodd" clip-rule="evenodd" d="M61.0163 16.337H58.0782C56.8723 16.337 55.9618 15.6849 55.9618 14.5159C55.9618 13.224 56.9585 12.6334 58.4719 12.6334C58.8411 12.6334 59.2717 12.6703 59.6655 12.7318V12.3627C59.6655 11.6121 59.161 11.2799 58.2012 11.2799C57.5829 11.2799 57.0385 11.4369 56.64 11.6309C56.5613 11.6692 56.4663 11.6136 56.4663 11.5262V10.5331C56.4663 10.4926 56.4876 10.4551 56.523 10.4357C56.969 10.1923 57.6593 10.0002 58.4965 10.0002C60.1453 10.0002 61.1297 10.7262 61.1297 12.1781V12.9785L61.7619 13.085C61.8166 13.0942 61.8567 13.1416 61.8567 13.1971V13.9489C61.8567 14.0194 61.7931 14.0729 61.7236 14.0609L61.1297 13.9579V14.5529V16.2233C61.1297 16.2861 61.0791 16.337 61.0163 16.337ZM59.5518 15.1927H58.435C57.869 15.1927 57.426 14.9589 57.426 14.4175C57.426 13.8146 58.0044 13.6177 58.6934 13.6177C58.9887 13.6177 59.3825 13.6546 59.6655 13.7038V15.079C59.6655 15.1418 59.6146 15.1927 59.5518 15.1927Z" fill="white"/>
</svg>
